<svg width="305" height="109" viewBox="0 0 305 109" fill="none" xmlns="http://www.w3.org/2000/svg">
<path d="M20.951 45.9702C9.03147 53.6028 3.119 59.3273 1.93246 61.8359C0.406914 64.887 3.55965 76.1761 3.55965 74.0403C3.55965 71.9046 9.5601 65.4972 10.6788 64.4802C11.5738 63.6666 19.2761 57.8647 23.0053 55.3221L35.108 48.1012L50.2415 40.2749C50.75 39.8002 51.6857 38.4849 51.3602 37.0204C50.4584 37.2916 48.61 37.2644 48.4311 34.9863C48.3193 33.5624 49.1228 32.7488 49.9364 32.342C49.5635 32.1091 48.5329 31.7167 47.3938 31.8335C42.5795 34.0195 31.8352 39.0006 20.951 45.9702Z" fill="#058C42"/>
<path d="M49.428 79.4302C52.7639 89.5192 52.4452 95.1603 51.8689 96.7198C48.2754 95.8044 40.3357 93.6077 37.3253 92.1431C33.5623 90.3125 23.4937 84.312 18.1034 78.6166C13.7912 74.0603 11.2893 70.3447 10.5773 69.0565C16.1032 64.4321 29.189 54.3027 37.3253 50.78C44.5755 62.4523 48.1849 75.3621 48.1059 75.3621C48.0066 75.3621 29.6093 73.0385 29.0921 72.9255C34.7908 78.0071 49.3263 79.3286 49.428 79.4302Z" fill="#058C42"/>
<path d="M9.45861 8.23796C9.76372 8.54307 27.155 37.7319 27.2567 38.037C20.4087 42.2407 6.06173 51.5432 3.45812 55.1232C3.55983 55.1232 0.508729 48.8176 0.101916 41.3932C-0.304897 33.9689 0.610432 20.3406 1.01725 17.493C1.3427 15.2148 3.25471 4.88176 4.17003 0C8.13646 1.05093 16.5778 3.35621 18.6119 4.16983C21.1545 5.18686 32.8503 8.54307 48.0041 20.1372C46.1735 21.934 42.4918 26.5445 42.4104 30.6127C42.3291 30.6127 38.3084 32.6467 36.3083 33.6638C36.5117 28.7142 36.8574 18.5507 36.6134 17.493C36.3693 16.4352 34.6132 28.443 33.7657 34.5791L31.3248 36.3081C30.8163 33.7655 9.56032 8.23796 9.45861 8.23796Z" fill="#058C42"/>
<path d="M57.9711 95.9062C57.7676 90.4142 55.0217 78.7183 54.92 78.6166C61.5186 72.1298 64.612 64.8435 66.0768 59.5981C67.0288 59.4354 73.952 58.3099 77.2947 57.7674C77.4574 58.9879 76.7522 64.0391 76.3793 66.4122C75.1589 73.2263 72.3112 77.7013 69.5652 83.0915C66.898 88.3272 57.8693 95.8044 57.9711 95.9062Z" fill="#058C42"/>
<path d="M64.7036 59.5981C59.2885 71.6902 53.1195 74.3451 53.2927 74.3451C50.7867 65.9065 45.4596 56.9127 40.8849 49.3261L44.0377 47.5971C46.8854 54.9197 53.8012 57.3606 55.937 58.276C57.6456 59.0082 62.4933 59.4625 64.7036 59.5981Z" fill="#058C42"/>
<path d="M52.886 19.6291C56.5473 15.7237 61.1917 12.9167 63.0563 12.0013C61.9036 13.2218 59.6187 16.8424 59.7001 21.5614C59.8018 27.4602 60.8188 35.9016 61.9375 37.3254C63.0563 38.7493 63.5648 45.4617 74.5487 48.2077C83.0105 50.079 100.381 53.7336 108.009 55.3269C109.941 55.8693 114.355 56.6287 116.552 55.3269C116.45 55.3269 118.078 56.5474 108.009 60.8189C104.856 62.0393 103.229 63.2598 99.5677 61.7342C98.0422 61.0986 96.7201 60.8189 95.2962 60.0053C93.1604 55.3269 89.9059 53.6997 84.2106 53.6997C80.0407 53.6997 75.5658 56.1405 65.3955 56.1405C59.4967 56.2423 55.5302 54.615 52.174 52.886C49.4891 51.5029 47.8686 47.5636 47.394 45.7668C48.5127 45.1905 51.035 43.7531 52.174 42.614C53.5979 41.1902 55.3268 37.6306 55.3268 33.5624C55.3268 29.4943 51.7672 28.6807 49.8349 28.579C48.289 28.4976 46.8855 29.2231 46.377 29.596C46.8855 25.833 48.3093 24.5108 52.886 19.6291Z" fill="#058C42"/>
<path d="M80.0404 65.3953C83.1321 64.5003 88.5156 61.1916 90.8209 59.8016C91.2277 60.5136 91.7566 61.734 92.6516 62.5476C93.994 63.7681 97.4316 64.8529 99.1606 65.3953C98.7538 65.9038 90.9226 70.1754 89.7022 70.7856L76.2773 77.498C77.9046 75.708 79.837 68.8532 80.0404 65.3953Z" fill="#058C42"/>
<path d="M63.463 22.1712L64.8868 34.8841C65.5156 40.4981 70.7764 43.5967 73.3282 44.4442C84.1087 47.0207 106.89 52.3974 111.772 53.2924C116.654 54.1874 118.959 49.7328 119.501 47.3936C119.366 43.834 118.973 35.474 118.484 30.5108C117.996 25.5477 113.806 23.1543 111.772 22.578L96.4148 18.0013C91.1601 16.5097 79.6338 13.2416 75.5656 12.1026C70.4805 10.6787 68.6498 11.594 65.9038 13.5264C63.707 15.0723 63.3612 19.9337 63.463 22.1712Z" fill="#058C42"/>
<path d="M5.79723 75.1585C5.87859 74.1008 7.18717 72.3447 7.83129 71.5989L11.3909 75.1585C12.3062 77.8028 19.2898 84.8203 23.0868 88.0748C8.5432 84.6169 6.30574 79.3283 5.79723 78.6164C5.28871 77.9045 5.69552 76.4806 5.79723 75.1585Z" fill="#058C42"/>
<path d="M76.2434 77.0476H91.9034V78.4396H77.6354V98.2756H92.4834V99.6676H76.2434V77.0476ZM80.1294 80.0636H91.9034V81.4556H81.5214V85.9216H90.4244V87.3136H80.1294V80.0636ZM80.1294 88.8506H90.4244V90.2426H81.5214V95.2596H92.4834V96.6516H80.1294V88.8506ZM114.45 95.7236C113.734 97.1156 112.623 98.2176 111.115 99.0296C109.626 99.8416 107.915 100.248 105.982 100.248C103.816 100.248 101.912 99.7643 100.269 98.7976C98.6445 97.8116 97.3685 96.4293 96.4405 94.6506C95.5319 92.8526 95.0775 90.7356 95.0775 88.2996C95.0775 85.9023 95.5319 83.8143 96.4405 82.0356C97.3685 80.2569 98.6445 78.8843 100.269 77.9176C101.912 76.9316 103.807 76.4386 105.953 76.4386C107.325 76.4386 108.572 76.6319 109.694 77.0186C110.815 77.4053 111.772 77.9369 112.565 78.6136C113.357 79.2903 113.937 80.0636 114.305 80.9336L113.348 81.8036C112.516 80.3149 111.463 79.2806 110.187 78.7006C108.911 78.1206 107.499 77.8306 105.953 77.8306C104.058 77.8306 102.395 78.2656 100.965 79.1356C99.5532 80.0056 98.4512 81.2236 97.6585 82.7896C96.8659 84.3556 96.4695 86.1923 96.4695 88.2996C96.4695 90.4456 96.8659 92.3113 97.6585 93.8966C98.4512 95.4819 99.5629 96.7096 100.994 97.5796C102.424 98.4496 104.087 98.8846 105.982 98.8846C107.49 98.8846 108.872 98.5849 110.129 97.9856C111.405 97.3863 112.545 96.3229 113.551 94.7956L114.45 95.7236ZM112.304 93.5486C111.55 94.7086 110.651 95.5689 109.607 96.1296C108.563 96.6709 107.509 96.9416 106.446 96.9416C105.17 96.9416 103.99 96.6226 102.908 95.9846C101.844 95.3466 100.994 94.3896 100.356 93.1136C99.7175 91.8376 99.3985 90.2329 99.3985 88.2996C99.3985 86.4436 99.7175 84.8776 100.356 83.6016C100.994 82.3256 101.844 81.3686 102.908 80.7306C103.971 80.0733 105.141 79.7446 106.417 79.7446C107.441 79.7446 108.466 80.0153 109.491 80.5566C110.515 81.0786 111.356 81.9099 112.014 83.0506L110.999 83.9786C110.767 83.4566 110.409 82.9829 109.926 82.5576C109.462 82.1129 108.92 81.7649 108.302 81.5136C107.683 81.2623 107.055 81.1366 106.417 81.1366C105.373 81.1366 104.425 81.4169 103.575 81.9776C102.724 82.5383 102.047 83.3503 101.545 84.4136C101.042 85.4769 100.791 86.7723 100.791 88.2996C100.791 89.8849 101.042 91.2189 101.545 92.3016C102.047 93.3843 102.724 94.1963 103.575 94.7376C104.425 95.2789 105.382 95.5496 106.446 95.5496C107.084 95.5496 107.712 95.4239 108.331 95.1726C108.969 94.9019 109.549 94.5443 110.071 94.0996C110.593 93.6356 110.989 93.1039 111.26 92.5046L112.304 93.5486ZM126.899 100.248C124.811 100.248 122.984 99.7643 121.418 98.7976C119.852 97.8309 118.634 96.4583 117.764 94.6796C116.894 92.8816 116.459 90.7549 116.459 88.2996C116.459 85.9023 116.894 83.8143 117.764 82.0356C118.634 80.2569 119.852 78.8843 121.418 77.9176C122.984 76.9316 124.811 76.4386 126.899 76.4386C128.987 76.4386 130.805 76.9316 132.351 77.9176C133.917 78.9036 135.126 80.2859 135.976 82.0646C136.827 83.8433 137.252 85.9216 137.252 88.2996C137.252 90.7549 136.827 92.8816 135.976 94.6796C135.126 96.4583 133.917 97.8309 132.351 98.7976C130.805 99.7643 128.987 100.248 126.899 100.248ZM126.899 98.8846C128.736 98.8846 130.321 98.4496 131.655 97.5796C132.989 96.7096 134.024 95.4819 134.758 93.8966C135.493 92.3113 135.86 90.4456 135.86 88.2996C135.86 86.2116 135.493 84.3846 134.758 82.8186C134.024 81.2526 132.989 80.0346 131.655 79.1646C130.321 78.2753 128.736 77.8306 126.899 77.8306C125.063 77.8306 123.468 78.2656 122.114 79.1356C120.761 80.0056 119.707 81.2236 118.953 82.7896C118.219 84.3556 117.851 86.1923 117.851 88.2996C117.851 90.4456 118.219 92.3113 118.953 93.8966C119.707 95.4819 120.761 96.7096 122.114 97.5796C123.468 98.4496 125.063 98.8846 126.899 98.8846ZM126.899 97.1156C125.739 97.1156 124.666 96.7773 123.68 96.1006C122.714 95.4239 121.94 94.4379 121.36 93.1426C120.78 91.8279 120.49 90.2136 120.49 88.2996C120.49 86.3663 120.8 84.7616 121.418 83.4856C122.037 82.1903 122.83 81.2236 123.796 80.5856C124.782 79.9283 125.817 79.5996 126.899 79.5996C128.059 79.5996 129.113 79.9283 130.06 80.5856C131.027 81.2236 131.791 82.1903 132.351 83.4856C132.931 84.7616 133.221 86.3663 133.221 88.2996C133.221 90.2136 132.922 91.8279 132.322 93.1426C131.723 94.4379 130.94 95.4239 129.973 96.1006C129.026 96.7773 128.001 97.1156 126.899 97.1156ZM126.899 95.7236C127.808 95.7236 128.63 95.4336 129.364 94.8536C130.118 94.2736 130.718 93.4326 131.162 92.3306C131.607 91.2093 131.829 89.8656 131.829 88.2996C131.829 85.9409 131.365 84.1333 130.437 82.8766C129.509 81.6199 128.33 80.9916 126.899 80.9916C126.01 80.9916 125.179 81.2719 124.405 81.8326C123.651 82.3933 123.042 83.2149 122.578 84.2976C122.114 85.3803 121.882 86.7143 121.882 88.2996C121.882 89.8656 122.095 91.2093 122.52 92.3306C122.965 93.4326 123.564 94.2736 124.318 94.8536C125.092 95.4336 125.952 95.7236 126.899 95.7236ZM159.479 95.7236C158.764 97.1156 157.652 98.2176 156.144 99.0296C154.655 99.8416 152.944 100.248 151.011 100.248C148.846 100.248 146.941 99.7643 145.298 98.7976C143.674 97.8116 142.398 96.4293 141.47 94.6506C140.561 92.8526 140.107 90.7356 140.107 88.2996C140.107 85.9023 140.561 83.8143 141.47 82.0356C142.398 80.2569 143.674 78.8843 145.298 77.9176C146.941 76.9316 148.836 76.4386 150.982 76.4386C152.355 76.4386 153.602 76.6319 154.723 77.0186C155.844 77.4053 156.801 77.9369 157.594 78.6136C158.387 79.2903 158.967 80.0636 159.334 80.9336L158.377 81.8036C157.546 80.3149 156.492 79.2806 155.216 78.7006C153.94 78.1206 152.529 77.8306 150.982 77.8306C149.087 77.8306 147.425 78.2656 145.994 79.1356C144.583 80.0056 143.481 81.2236 142.688 82.7896C141.895 84.3556 141.499 86.1923 141.499 88.2996C141.499 90.4456 141.895 92.3113 142.688 93.8966C143.481 95.4819 144.592 96.7096 146.023 97.5796C147.454 98.4496 149.116 98.8846 151.011 98.8846C152.519 98.8846 153.901 98.5849 155.158 97.9856C156.434 97.3863 157.575 96.3229 158.58 94.7956L159.479 95.7236ZM157.333 93.5486C156.579 94.7086 155.68 95.5689 154.636 96.1296C153.592 96.6709 152.538 96.9416 151.475 96.9416C150.199 96.9416 149.02 96.6226 147.937 95.9846C146.874 95.3466 146.023 94.3896 145.385 93.1136C144.747 91.8376 144.428 90.2329 144.428 88.2996C144.428 86.4436 144.747 84.8776 145.385 83.6016C146.023 82.3256 146.874 81.3686 147.937 80.7306C149 80.0733 150.17 79.7446 151.446 79.7446C152.471 79.7446 153.495 80.0153 154.52 80.5566C155.545 81.0786 156.386 81.9099 157.043 83.0506L156.028 83.9786C155.796 83.4566 155.438 82.9829 154.955 82.5576C154.491 82.1129 153.95 81.7649 153.331 81.5136C152.712 81.2623 152.084 81.1366 151.446 81.1366C150.402 81.1366 149.455 81.4169 148.604 81.9776C147.753 82.5383 147.077 83.3503 146.574 84.4136C146.071 85.4769 145.82 86.7723 145.82 88.2996C145.82 89.8849 146.071 91.2189 146.574 92.3016C147.077 93.3843 147.753 94.1963 148.604 94.7376C149.455 95.2789 150.412 95.5496 151.475 95.5496C152.113 95.5496 152.741 95.4239 153.36 95.1726C153.998 94.9019 154.578 94.5443 155.1 94.0996C155.622 93.6356 156.018 93.1039 156.289 92.5046L157.333 93.5486ZM173.35 78.4396H168.652L161.547 99.6676H160.097L167.637 77.0476H174.365L181.905 99.6676H180.397L173.35 78.4396ZM170.102 80.7306H171.784L175.264 91.3156H166.622L170.102 80.7306ZM173.35 89.9236C173.253 89.6143 173.098 89.1503 172.886 88.5316C172.673 87.9129 172.441 87.2266 172.19 86.4726C171.938 85.6993 171.706 84.9356 171.494 84.1816C171.281 83.4083 171.126 82.7219 171.03 82.1226H170.856C170.759 82.7026 170.604 83.3793 170.392 84.1526C170.198 84.9066 169.976 85.6703 169.725 86.4436C169.473 87.1976 169.241 87.8936 169.029 88.5316C168.816 89.1503 168.661 89.6143 168.565 89.9236H173.35ZM174.8 94.3606H167.144L165.346 99.6676H163.896L166.158 92.9686H175.815L177.99 99.6676H176.54L174.8 94.3606ZM188.428 77.0476H189.82V94.9406H199.419V96.3326H188.428V77.0476ZM184.455 77.0476H185.847V98.2756H199.419V99.6676H184.455V77.0476ZM205.329 77.0476L209.766 87.0526L214.232 77.0476H215.769L209.795 90.4746L203.792 77.0476H205.329ZM210.984 91.8376L217.973 77.0476H219.481L212.376 92.0986V99.6676H210.984V91.8376ZM207.011 92.0696L199.877 77.0476H201.385L208.403 91.7506V99.6676H207.011V92.0696ZM225.526 91.0256H230.92C232.853 91.0256 234.371 90.4553 235.473 89.3146C236.575 88.1739 237.126 86.6369 237.126 84.7036C237.126 83.4856 236.875 82.4126 236.372 81.4846C235.869 80.5373 235.164 79.7929 234.255 79.2516C233.346 78.7103 232.264 78.4396 231.007 78.4396H223.032V99.6676H221.64V77.0476H231.007C232.534 77.0476 233.859 77.3763 234.98 78.0336C236.101 78.6909 236.971 79.5996 237.59 80.7596C238.209 81.9003 238.518 83.2149 238.518 84.7036C238.518 87.0816 237.841 88.9666 236.488 90.3586C235.135 91.7313 233.279 92.4176 230.92 92.4176H226.918V99.6676H225.526V91.0256ZM225.439 80.0926H229.818C231.191 80.0926 232.331 80.4696 233.24 81.2236C234.168 81.9776 234.632 83.1473 234.632 84.7326C234.632 85.7766 234.419 86.6466 233.994 87.3426C233.569 88.0193 232.989 88.5316 232.254 88.8796C231.539 89.2083 230.736 89.3726 229.847 89.3726H225.439V80.0926ZM229.847 87.9806C230.794 87.9806 231.597 87.7196 232.254 87.1976C232.911 86.6563 233.24 85.8346 233.24 84.7326C233.24 83.6113 232.911 82.7896 232.254 82.2676C231.597 81.7456 230.785 81.4846 229.818 81.4846H226.831V87.9806H229.847ZM247.099 89.4886C245.379 88.8699 244.074 88.0773 243.184 87.1106C242.314 86.1439 241.879 84.8196 241.879 83.1376C241.879 81.9196 242.198 80.8079 242.836 79.8026C243.474 78.7779 244.393 77.9659 245.591 77.3666C246.79 76.7479 248.23 76.4386 249.912 76.4386C254.03 76.4386 256.737 77.9369 258.032 80.9336L256.93 81.7166C256.157 80.1699 255.181 79.1356 254.001 78.6136C252.841 78.0916 251.478 77.8306 249.912 77.8306C248.54 77.8306 247.351 78.0723 246.345 78.5556C245.359 79.0196 244.596 79.6576 244.054 80.4696C243.532 81.2623 243.271 82.1516 243.271 83.1376C243.271 84.4909 243.639 85.5446 244.373 86.2986C245.108 87.0526 246.171 87.6809 247.563 88.1836L250.84 89.3436C252.31 89.8656 253.305 90.4746 253.827 91.1706C254.349 91.8473 254.61 92.6206 254.61 93.4906C254.61 94.5346 254.253 95.4046 253.537 96.1006C252.822 96.7966 251.633 97.1446 249.97 97.1446C248.752 97.1446 247.583 96.7676 246.461 96.0136C245.34 95.2403 244.412 94.0513 243.677 92.4466L244.866 91.6346C245.369 92.9299 246.094 93.9449 247.041 94.6796C247.989 95.3949 248.965 95.7526 249.97 95.7526C251.092 95.7526 251.913 95.5496 252.435 95.1436C252.957 94.7376 253.218 94.1866 253.218 93.4906C253.218 92.8719 253.006 92.3403 252.58 91.8956C252.155 91.4316 251.42 91.0159 250.376 90.6486L247.099 89.4886ZM248.984 86.3276C247.728 85.9023 246.848 85.3899 246.345 84.7906C245.843 84.1913 245.591 83.5436 245.591 82.8476C245.591 82.2483 245.727 81.6876 245.997 81.1656C246.287 80.6436 246.761 80.2183 247.418 79.8896C248.095 79.5609 248.994 79.3966 250.115 79.3966C251.256 79.3966 252.281 79.6866 253.189 80.2666C254.098 80.8466 254.823 81.7069 255.364 82.8476L254.204 83.6886C253.856 82.7606 253.315 82.0453 252.58 81.5426C251.846 81.0399 251.024 80.7886 250.115 80.7886C248.994 80.7886 248.192 80.9916 247.708 81.3976C247.225 81.7843 246.983 82.2676 246.983 82.8476C246.983 83.7369 247.795 84.4523 249.419 84.9936L253.015 86.1826C254.736 86.7433 256.099 87.5649 257.104 88.6476C258.129 89.7303 258.641 91.1513 258.641 92.9106C258.641 95.2499 257.887 97.0576 256.379 98.3336C254.891 99.6096 252.764 100.248 249.999 100.248C247.66 100.248 245.717 99.7256 244.17 98.6816C242.624 97.6376 241.531 96.1876 240.893 94.3316L241.937 93.6356C242.788 95.5496 243.89 96.9029 245.243 97.6956C246.597 98.4883 248.182 98.8846 249.999 98.8846C252.3 98.8846 254.079 98.3723 255.335 97.3476C256.611 96.3229 257.249 94.8439 257.249 92.9106C257.249 91.4799 256.814 90.3393 255.944 89.4886C255.094 88.6379 253.972 87.9806 252.58 87.5166L248.984 86.3276ZM263.044 77.0476H278.704V78.4396H264.436V98.2756H279.284V99.6676H263.044V77.0476ZM266.93 80.0636H278.704V81.4556H268.322V85.9216H277.225V87.3136H266.93V80.0636ZM266.93 88.8506H277.225V90.2426H268.322V95.2596H279.284V96.6516H266.93V88.8506Z" fill="white"/>
</svg>
