<svg width="155" height="59" viewBox="0 0 155 59" fill="none" xmlns="http://www.w3.org/2000/svg">
<path d="M11.6376 25.2684C5.0167 29.3537 1.7325 32.4178 1.07341 33.7605C0.226017 35.3936 1.97727 41.4361 1.97727 40.2929C1.97727 39.1498 5.31034 35.7203 5.93177 35.1759C6.42891 34.7404 10.7073 31.6349 12.7787 30.274L19.5014 26.409L27.9077 22.22C28.1901 21.9659 28.7099 21.2619 28.5291 20.478C28.0282 20.6232 27.0014 20.6086 26.902 19.3893C26.8399 18.6271 27.2862 18.1917 27.7382 17.9739C27.5311 17.8492 26.9586 17.6392 26.3259 17.7017C23.6516 18.8718 17.6835 21.5379 11.6376 25.2684Z" fill="#F4F4F4"/>
<path d="M27.4558 43.1778C29.3088 48.578 29.1318 51.5974 28.8116 52.4321C26.8155 51.9421 22.4053 50.7663 20.7331 49.9824C18.6429 49.0026 13.05 45.7908 10.0559 42.7423C7.66059 40.3036 6.27086 38.3148 5.87541 37.6253C8.94487 35.1501 16.2137 29.7283 20.7331 27.8428C24.7604 34.0904 26.7653 41.0004 26.7214 41.0004C26.6649 41.0004 15.9312 39.6939 16.1572 39.6939C19.3208 42.4157 27.3993 43.1234 27.4558 43.1778Z" fill="#F4F4F4"/>
<path d="M5.25398 5.07216C5.42346 5.23547 15.0838 20.8588 15.1403 21.0221C11.3364 23.2722 3.36711 28.2513 1.92089 30.1675C1.97738 30.1675 0.282584 26.7924 0.0566115 22.8185C-0.169361 18.8446 0.339077 11.5501 0.56505 10.0259C0.745828 8.80652 1.80789 3.27575 2.31633 0.662792C4.51956 1.2253 9.2085 2.4592 10.3384 2.8947C11.7507 3.43906 18.2474 5.23547 26.6649 11.4413C25.648 12.403 23.603 14.8708 23.5578 17.0482C23.5126 17.0482 21.2792 18.137 20.1682 18.6813C20.2812 16.0321 20.4732 10.592 20.3377 10.0259C20.2021 9.45976 19.2266 15.8869 18.7558 19.1713L17.4 20.0967C17.1175 18.7358 5.31048 5.07216 5.25398 5.07216Z" fill="#F4F4F4"/>
<path d="M32.2012 51.9966C32.0882 49.057 30.5629 42.7968 30.5064 42.7423C34.1718 39.2703 35.8901 35.3703 36.7037 32.5627C37.2325 32.4756 41.0782 31.8732 42.9349 31.5828C43.0253 32.2361 42.6336 34.9398 42.4265 36.2099C41.7486 39.8572 40.1668 42.2524 38.6414 45.1376C37.1599 47.94 32.1447 51.9421 32.2012 51.9966Z" fill="#F4F4F4"/>
<path d="M35.941 32.5627C32.9331 39.035 29.5063 40.456 29.6025 40.456C28.2105 35.9392 25.2515 31.1253 22.7104 27.0646L24.4617 26.1392C26.0435 30.0586 29.885 31.3651 31.0714 31.855C32.0204 32.247 34.7132 32.4901 35.941 32.5627Z" fill="#F4F4F4"/>
<path d="M29.3766 11.169C31.4103 9.07865 33.9902 7.5762 35.0259 7.08627C34.3857 7.73951 33.1164 9.67745 33.1616 12.2033C33.2181 15.3606 33.7831 19.8789 34.4045 20.641C35.0259 21.4031 35.3084 24.9959 41.4096 26.4657C46.1099 27.4674 55.7589 29.4235 59.9959 30.2763C61.0693 30.5666 63.5211 30.9731 64.7413 30.2763C64.6848 30.2763 65.5887 30.9295 59.9959 33.2159C58.2446 33.8691 57.3407 34.5224 55.307 33.7058C54.4596 33.3656 53.7251 33.2159 52.9342 32.7804C51.7479 30.2763 49.9401 29.4053 46.7765 29.4053C44.4603 29.4053 41.9746 30.7118 36.3253 30.7118C33.0487 30.7662 30.8454 29.8952 28.9811 28.9698C27.4897 28.2295 26.5896 26.121 26.326 25.1592C26.9474 24.8508 28.3484 24.0814 28.9811 23.4717C29.772 22.7096 30.7324 20.8043 30.7324 18.6268C30.7324 16.4494 28.7552 16.0139 27.6818 15.9594C26.8231 15.9159 26.0435 16.3042 25.761 16.5038C26.0435 14.4897 26.8344 13.782 29.3766 11.169Z" fill="#F4F4F4"/>
<path d="M44.4602 35.6658C46.1776 35.1867 49.168 33.4157 50.4485 32.6717C50.6744 33.0528 50.9682 33.706 51.4653 34.1415C52.2111 34.7948 54.1205 35.3754 55.0809 35.6658C54.8549 35.9379 50.505 38.2243 49.827 38.5509L42.3699 42.1437C43.2738 41.1856 44.3472 37.5166 44.4602 35.6658Z" fill="#F4F4F4"/>
<path d="M35.2518 12.5302L36.0427 19.3348C36.392 22.3397 39.3142 23.9982 40.7317 24.4518C46.7199 25.8309 59.3744 28.7088 62.0861 29.1878C64.7978 29.6668 66.0783 27.2825 66.3796 26.0305C66.3042 24.1252 66.0858 19.6505 65.8146 16.994C65.5435 14.3375 63.2159 13.0564 62.0861 12.7479L53.5556 10.2983C50.6368 9.49986 44.2342 7.75063 41.9745 7.14094C39.1499 6.37883 38.133 6.86876 36.6077 7.90305C35.3874 8.73049 35.1953 11.3326 35.2518 12.5302Z" fill="#F4F4F4"/>
<path d="M3.22033 40.8913C3.26553 40.3251 3.9924 39.3852 4.35019 38.986L6.32745 40.8913C6.83588 42.3066 10.7151 46.0628 12.8242 47.8047C4.74564 45.9539 3.5028 43.1232 3.22033 42.7421C2.93787 42.3611 3.16384 41.599 3.22033 40.8913Z" fill="#F4F4F4"/>
<path d="M41.7843 43.4928H49.3443V44.1648H42.4563V53.7408H49.6243V54.4128H41.7843V43.4928ZM43.6603 44.9488H49.3443V45.6208H44.3323V47.7768H48.6303V48.4488H43.6603V44.9488ZM43.6603 49.1908H48.6303V49.8628H44.3323V52.2848H49.6243V52.9568H43.6603V49.1908ZM60.2286 52.5088C59.8833 53.1808 59.3466 53.7128 58.6186 54.1048C57.9 54.4968 57.074 54.6928 56.1406 54.6928C55.0953 54.6928 54.176 54.4595 53.3826 53.9928C52.5986 53.5168 51.9826 52.8495 51.5346 51.9908C51.096 51.1228 50.8766 50.1008 50.8766 48.9248C50.8766 47.7675 51.096 46.7595 51.5346 45.9008C51.9826 45.0421 52.5986 44.3795 53.3826 43.9128C54.176 43.4368 55.0906 43.1988 56.1266 43.1988C56.7893 43.1988 57.3913 43.2921 57.9326 43.4788C58.474 43.6655 58.936 43.9221 59.3186 44.2488C59.7013 44.5755 59.9813 44.9488 60.1586 45.3688L59.6966 45.7888C59.2953 45.0701 58.7866 44.5708 58.1706 44.2908C57.5546 44.0108 56.8733 43.8708 56.1266 43.8708C55.212 43.8708 54.4093 44.0808 53.7186 44.5008C53.0373 44.9208 52.5053 45.5088 52.1226 46.2648C51.74 47.0208 51.5486 47.9075 51.5486 48.9248C51.5486 49.9608 51.74 50.8615 52.1226 51.6268C52.5053 52.3921 53.042 52.9848 53.7326 53.4048C54.4233 53.8248 55.226 54.0348 56.1406 54.0348C56.8686 54.0348 57.536 53.8901 58.1426 53.6008C58.7586 53.3115 59.3093 52.7981 59.7946 52.0608L60.2286 52.5088ZM59.1926 51.4588C58.8286 52.0188 58.3946 52.4341 57.8906 52.7048C57.3866 52.9661 56.878 53.0968 56.3646 53.0968C55.7486 53.0968 55.1793 52.9428 54.6566 52.6348C54.1433 52.3268 53.7326 51.8648 53.4246 51.2488C53.1166 50.6328 52.9626 49.8581 52.9626 48.9248C52.9626 48.0288 53.1166 47.2728 53.4246 46.6568C53.7326 46.0408 54.1433 45.5788 54.6566 45.2708C55.17 44.9535 55.7346 44.7948 56.3506 44.7948C56.8453 44.7948 57.34 44.9255 57.8346 45.1868C58.3293 45.4388 58.7353 45.8401 59.0526 46.3908L58.5626 46.8388C58.4506 46.5868 58.278 46.3581 58.0446 46.1528C57.8206 45.9381 57.5593 45.7701 57.2606 45.6488C56.962 45.5275 56.6586 45.4668 56.3506 45.4668C55.8466 45.4668 55.3893 45.6021 54.9786 45.8728C54.568 46.1435 54.2413 46.5355 53.9986 47.0488C53.756 47.5621 53.6346 48.1875 53.6346 48.9248C53.6346 49.6901 53.756 50.3341 53.9986 50.8568C54.2413 51.3795 54.568 51.7715 54.9786 52.0328C55.3893 52.2941 55.8513 52.4248 56.3646 52.4248C56.6726 52.4248 56.976 52.3641 57.2746 52.2428C57.5826 52.1121 57.8626 51.9395 58.1146 51.7248C58.3666 51.5008 58.558 51.2441 58.6886 50.9548L59.1926 51.4588ZM66.2389 54.6928C65.2309 54.6928 64.3489 54.4595 63.5929 53.9928C62.8369 53.5261 62.2489 52.8635 61.8289 52.0048C61.4089 51.1368 61.1989 50.1101 61.1989 48.9248C61.1989 47.7675 61.4089 46.7595 61.8289 45.9008C62.2489 45.0421 62.8369 44.3795 63.5929 43.9128C64.3489 43.4368 65.2309 43.1988 66.2389 43.1988C67.2469 43.1988 68.1242 43.4368 68.8709 43.9128C69.6269 44.3888 70.2102 45.0561 70.6209 45.9148C71.0316 46.7735 71.2369 47.7768 71.2369 48.9248C71.2369 50.1101 71.0316 51.1368 70.6209 52.0048C70.2102 52.8635 69.6269 53.5261 68.8709 53.9928C68.1242 54.4595 67.2469 54.6928 66.2389 54.6928ZM66.2389 54.0348C67.1256 54.0348 67.8909 53.8248 68.5349 53.4048C69.1789 52.9848 69.6782 52.3921 70.0329 51.6268C70.3876 50.8615 70.5649 49.9608 70.5649 48.9248C70.5649 47.9168 70.3876 47.0348 70.0329 46.2788C69.6782 45.5228 69.1789 44.9348 68.5349 44.5148C67.8909 44.0855 67.1256 43.8708 66.2389 43.8708C65.3522 43.8708 64.5822 44.0808 63.9289 44.5008C63.2756 44.9208 62.7669 45.5088 62.4029 46.2648C62.0482 47.0208 61.8709 47.9075 61.8709 48.9248C61.8709 49.9608 62.0482 50.8615 62.4029 51.6268C62.7669 52.3921 63.2756 52.9848 63.9289 53.4048C64.5822 53.8248 65.3522 54.0348 66.2389 54.0348ZM66.2389 53.1808C65.6789 53.1808 65.1609 53.0175 64.6849 52.6908C64.2182 52.3641 63.8449 51.8881 63.5649 51.2628C63.2849 50.6281 63.1449 49.8488 63.1449 48.9248C63.1449 47.9915 63.2942 47.2168 63.5929 46.6008C63.8916 45.9755 64.2742 45.5088 64.7409 45.2008C65.2169 44.8835 65.7162 44.7248 66.2389 44.7248C66.7989 44.7248 67.3076 44.8835 67.7649 45.2008C68.2316 45.5088 68.6002 45.9755 68.8709 46.6008C69.1509 47.2168 69.2909 47.9915 69.2909 48.9248C69.2909 49.8488 69.1462 50.6281 68.8569 51.2628C68.5676 51.8881 68.1896 52.3641 67.7229 52.6908C67.2656 53.0175 66.7709 53.1808 66.2389 53.1808ZM66.2389 52.5088C66.6776 52.5088 67.0742 52.3688 67.4289 52.0888C67.7929 51.8088 68.0822 51.4028 68.2969 50.8708C68.5116 50.3295 68.6189 49.6808 68.6189 48.9248C68.6189 47.7861 68.3949 46.9135 67.9469 46.3068C67.4989 45.7001 66.9296 45.3968 66.2389 45.3968C65.8096 45.3968 65.4082 45.5321 65.0349 45.8028C64.6709 46.0735 64.3769 46.4701 64.1529 46.9928C63.9289 47.5155 63.8169 48.1595 63.8169 48.9248C63.8169 49.6808 63.9196 50.3295 64.1249 50.8708C64.3396 51.4028 64.6289 51.8088 64.9929 52.0888C65.3662 52.3688 65.7816 52.5088 66.2389 52.5088ZM81.9669 52.5088C81.6216 53.1808 81.0849 53.7128 80.3569 54.1048C79.6383 54.4968 78.8123 54.6928 77.8789 54.6928C76.8336 54.6928 75.9143 54.4595 75.1209 53.9928C74.3369 53.5168 73.7209 52.8495 73.2729 51.9908C72.8343 51.1228 72.6149 50.1008 72.6149 48.9248C72.6149 47.7675 72.8343 46.7595 73.2729 45.9008C73.7209 45.0421 74.3369 44.3795 75.1209 43.9128C75.9143 43.4368 76.8289 43.1988 77.8649 43.1988C78.5276 43.1988 79.1296 43.2921 79.6709 43.4788C80.2123 43.6655 80.6743 43.9221 81.0569 44.2488C81.4396 44.5755 81.7196 44.9488 81.8969 45.3688L81.4349 45.7888C81.0336 45.0701 80.5249 44.5708 79.9089 44.2908C79.2929 44.0108 78.6116 43.8708 77.8649 43.8708C76.9503 43.8708 76.1476 44.0808 75.4569 44.5008C74.7756 44.9208 74.2436 45.5088 73.8609 46.2648C73.4783 47.0208 73.2869 47.9075 73.2869 48.9248C73.2869 49.9608 73.4783 50.8615 73.8609 51.6268C74.2436 52.3921 74.7803 52.9848 75.4709 53.4048C76.1616 53.8248 76.9643 54.0348 77.8789 54.0348C78.6069 54.0348 79.2743 53.8901 79.8809 53.6008C80.4969 53.3115 81.0476 52.7981 81.5329 52.0608L81.9669 52.5088ZM80.9309 51.4588C80.5669 52.0188 80.1329 52.4341 79.6289 52.7048C79.1249 52.9661 78.6163 53.0968 78.1029 53.0968C77.4869 53.0968 76.9176 52.9428 76.3949 52.6348C75.8816 52.3268 75.4709 51.8648 75.1629 51.2488C74.8549 50.6328 74.7009 49.8581 74.7009 48.9248C74.7009 48.0288 74.8549 47.2728 75.1629 46.6568C75.4709 46.0408 75.8816 45.5788 76.3949 45.2708C76.9083 44.9535 77.4729 44.7948 78.0889 44.7948C78.5836 44.7948 79.0783 44.9255 79.5729 45.1868C80.0676 45.4388 80.4736 45.8401 80.7909 46.3908L80.3009 46.8388C80.1889 46.5868 80.0163 46.3581 79.7829 46.1528C79.5589 45.9381 79.2976 45.7701 78.9989 45.6488C78.7003 45.5275 78.3969 45.4668 78.0889 45.4668C77.5849 45.4668 77.1276 45.6021 76.7169 45.8728C76.3063 46.1435 75.9796 46.5355 75.7369 47.0488C75.4943 47.5621 75.3729 48.1875 75.3729 48.9248C75.3729 49.6901 75.4943 50.3341 75.7369 50.8568C75.9796 51.3795 76.3063 51.7715 76.7169 52.0328C77.1276 52.2941 77.5896 52.4248 78.1029 52.4248C78.4109 52.4248 78.7143 52.3641 79.0129 52.2428C79.3209 52.1121 79.6009 51.9395 79.8529 51.7248C80.1049 51.5008 80.2963 51.2441 80.4269 50.9548L80.9309 51.4588ZM88.6632 44.1648H86.3952L82.9652 54.4128H82.2652L85.9052 43.4928H89.1532L92.7932 54.4128H92.0652L88.6632 44.1648ZM87.0952 45.2708H87.9072L89.5872 50.3808H85.4152L87.0952 45.2708ZM88.6632 49.7088C88.6165 49.5595 88.5419 49.3355 88.4392 49.0368C88.3365 48.7381 88.2245 48.4068 88.1032 48.0428C87.9819 47.6695 87.8699 47.3008 87.7672 46.9368C87.6645 46.5635 87.5899 46.2321 87.5432 45.9428H87.4592C87.4125 46.2228 87.3379 46.5495 87.2352 46.9228C87.1419 47.2868 87.0345 47.6555 86.9132 48.0288C86.7919 48.3928 86.6799 48.7288 86.5772 49.0368C86.4745 49.3355 86.3999 49.5595 86.3532 49.7088H88.6632ZM89.3632 51.8508H85.6672L84.7992 54.4128H84.0992L85.1912 51.1788H89.8532L90.9032 54.4128H90.2032L89.3632 51.8508ZM95.9425 43.4928H96.6145V52.1308H101.249V52.8028H95.9425V43.4928ZM94.0245 43.4928H94.6965V53.7408H101.249V54.4128H94.0245V43.4928ZM104.102 43.4928L106.244 48.3228L108.4 43.4928H109.142L106.258 49.9748L103.36 43.4928H104.102ZM106.832 50.6328L110.206 43.4928H110.934L107.504 50.7588V54.4128H106.832V50.6328ZM104.914 50.7448L101.47 43.4928H102.198L105.586 50.5908V54.4128H104.914V50.7448ZM113.852 50.2408H116.456C117.389 50.2408 118.122 49.9655 118.654 49.4148C119.186 48.8641 119.452 48.1221 119.452 47.1888C119.452 46.6008 119.33 46.0828 119.088 45.6348C118.845 45.1775 118.504 44.8181 118.066 44.5568C117.627 44.2955 117.104 44.1648 116.498 44.1648H112.648V54.4128H111.976V43.4928H116.498C117.235 43.4928 117.874 43.6515 118.416 43.9688C118.957 44.2861 119.377 44.7248 119.676 45.2848C119.974 45.8355 120.124 46.4701 120.124 47.1888C120.124 48.3368 119.797 49.2468 119.144 49.9188C118.49 50.5815 117.594 50.9128 116.456 50.9128H114.524V54.4128H113.852V50.2408ZM113.81 44.9628H115.924C116.586 44.9628 117.137 45.1448 117.576 45.5088C118.024 45.8728 118.248 46.4375 118.248 47.2028C118.248 47.7068 118.145 48.1268 117.94 48.4628C117.734 48.7895 117.454 49.0368 117.1 49.2048C116.754 49.3635 116.367 49.4428 115.938 49.4428H113.81V44.9628ZM115.938 48.7708C116.395 48.7708 116.782 48.6448 117.1 48.3928C117.417 48.1315 117.576 47.7348 117.576 47.2028C117.576 46.6615 117.417 46.2648 117.1 46.0128C116.782 45.7608 116.39 45.6348 115.924 45.6348H114.482V48.7708H115.938ZM124.267 49.4988C123.436 49.2001 122.806 48.8175 122.377 48.3508C121.957 47.8841 121.747 47.2448 121.747 46.4328C121.747 45.8448 121.901 45.3081 122.209 44.8228C122.517 44.3281 122.96 43.9361 123.539 43.6468C124.117 43.3481 124.813 43.1988 125.625 43.1988C127.613 43.1988 128.919 43.9221 129.545 45.3688L129.013 45.7468C128.639 45.0001 128.168 44.5008 127.599 44.2488C127.039 43.9968 126.381 43.8708 125.625 43.8708C124.962 43.8708 124.388 43.9875 123.903 44.2208C123.427 44.4448 123.058 44.7528 122.797 45.1448C122.545 45.5275 122.419 45.9568 122.419 46.4328C122.419 47.0861 122.596 47.5948 122.951 47.9588C123.305 48.3228 123.819 48.6261 124.491 48.8688L126.073 49.4288C126.782 49.6808 127.263 49.9748 127.515 50.3108C127.767 50.6375 127.893 51.0108 127.893 51.4308C127.893 51.9348 127.72 52.3548 127.375 52.6908C127.029 53.0268 126.455 53.1948 125.653 53.1948C125.065 53.1948 124.5 53.0128 123.959 52.6488C123.417 52.2755 122.969 51.7015 122.615 50.9268L123.189 50.5348C123.431 51.1601 123.781 51.6501 124.239 52.0048C124.696 52.3501 125.167 52.5228 125.653 52.5228C126.194 52.5228 126.591 52.4248 126.843 52.2288C127.095 52.0328 127.221 51.7668 127.221 51.4308C127.221 51.1321 127.118 50.8755 126.913 50.6608C126.707 50.4368 126.353 50.2361 125.849 50.0588L124.267 49.4988ZM125.177 47.9728C124.57 47.7675 124.145 47.5201 123.903 47.2308C123.66 46.9415 123.539 46.6288 123.539 46.2928C123.539 46.0035 123.604 45.7328 123.735 45.4808C123.875 45.2288 124.103 45.0235 124.421 44.8648C124.747 44.7061 125.181 44.6268 125.723 44.6268C126.273 44.6268 126.768 44.7668 127.207 45.0468C127.645 45.3268 127.995 45.7421 128.257 46.2928L127.697 46.6988C127.529 46.2508 127.267 45.9055 126.913 45.6628C126.558 45.4201 126.161 45.2988 125.723 45.2988C125.181 45.2988 124.794 45.3968 124.561 45.5928C124.327 45.7795 124.211 46.0128 124.211 46.2928C124.211 46.7221 124.603 47.0675 125.387 47.3288L127.123 47.9028C127.953 48.1735 128.611 48.5701 129.097 49.0928C129.591 49.6155 129.839 50.3015 129.839 51.1508C129.839 52.2801 129.475 53.1528 128.747 53.7688C128.028 54.3848 127.001 54.6928 125.667 54.6928C124.537 54.6928 123.599 54.4408 122.853 53.9368C122.106 53.4328 121.579 52.7328 121.271 51.8368L121.775 51.5008C122.185 52.4248 122.717 53.0781 123.371 53.4608C124.024 53.8435 124.789 54.0348 125.667 54.0348C126.777 54.0348 127.636 53.7875 128.243 53.2928C128.859 52.7981 129.167 52.0841 129.167 51.1508C129.167 50.4601 128.957 49.9095 128.537 49.4988C128.126 49.0881 127.585 48.7708 126.913 48.5468L125.177 47.9728ZM131.964 43.4928H139.524V44.1648H132.636V53.7408H139.804V54.4128H131.964V43.4928ZM133.84 44.9488H139.524V45.6208H134.512V47.7768H138.81V48.4488H133.84V44.9488ZM133.84 49.1908H138.81V49.8628H134.512V52.2848H139.804V52.9568H133.84V49.1908Z" fill="#F4F4F4"/>
</svg>
